<?xml version="1.0" encoding="UTF-8"?>
<!DOCTYPE svg>
<svg xmlns="http://www.w3.org/2000/svg" version="1.1" width="52px" height="47px" style="shape-rendering:geometricPrecision; text-rendering:geometricPrecision; image-rendering:optimizeQuality; fill-rule:evenodd; clip-rule:evenodd" xmlns:xlink="http://www.w3.org/1999/xlink">
<g><path style="opacity:1" fill="#fbfbfb" d="M -0.5,-0.5 C 16.8333,-0.5 34.1667,-0.5 51.5,-0.5C 51.5,15.1667 51.5,30.8333 51.5,46.5C 34.1667,46.5 16.8333,46.5 -0.5,46.5C -0.5,30.8333 -0.5,15.1667 -0.5,-0.5 Z"/></g>
<g><path style="opacity:1" fill="#ba947d" d="M 2.5,2.5 C 17.8333,2.5 33.1667,2.5 48.5,2.5C 48.5,16.8333 48.5,31.1667 48.5,45.5C 33.1667,45.5 17.8333,45.5 2.5,45.5C 2.5,31.1667 2.5,16.8333 2.5,2.5 Z"/></g>
<g><path style="opacity:1" fill="#e5732e" d="M 3.5,3.5 C 18.1667,3.5 32.8333,3.5 47.5,3.5C 47.5,17.1667 47.5,30.8333 47.5,44.5C 32.8333,44.5 18.1667,44.5 3.5,44.5C 3.5,30.8333 3.5,17.1667 3.5,3.5 Z"/></g>
<g><path style="opacity:1" fill="#c08263" d="M 41.5,31.5 C 43.0269,31.427 44.0269,32.0937 44.5,33.5C 42.9731,33.573 41.9731,32.9063 41.5,31.5 Z"/></g>
<g><path style="opacity:1" fill="#b9907b" d="M 21.5,13.5 C 21.2627,14.791 21.596,15.791 22.5,16.5C 22.4701,17.4972 22.9701,18.1639 24,18.5C 25.1618,17.8132 26.3284,17.6466 27.5,18C 27.273,19.1353 26.9396,20.302 26.5,21.5C 24.5202,22.3833 22.5202,22.2166 20.5,21C 19.244,20.5831 18.5774,19.7498 18.5,18.5C 22.2887,18.2627 22.2887,17.5961 18.5,16.5C 19.5,15.5 20.5,14.5 21.5,13.5 Z"/></g>
<g><path style="opacity:1" fill="#de7536" d="M 33.5,16.5 C 35.3469,17.5729 37.3469,17.5729 39.5,16.5C 40.2998,18.7409 41.9664,19.7409 44.5,19.5C 44.704,24.7235 44.704,29.7235 44.5,34.5C 44.5,34.1667 44.5,33.8333 44.5,33.5C 44.0269,32.0937 43.0269,31.427 41.5,31.5C 38.4887,30.3307 35.822,28.664 33.5,26.5C 31.3911,25.6091 29.3911,24.4424 27.5,23C 29.5,21.6667 31.5,20.3333 33.5,19C 32.2264,18.0228 32.2264,17.1894 33.5,16.5 Z"/></g>
<g><path style="opacity:1" fill="#e9712a" d="M 33.5,26.5 C 32.8592,25.5178 32.1925,24.5178 31.5,23.5C 32.8848,22.4495 33.8848,21.1161 34.5,19.5C 35.325,18.6143 36.325,18.281 37.5,18.5C 37.3505,19.552 37.5172,20.552 38,21.5C 39.3333,20.1667 40.6667,20.1667 42,21.5C 42.8214,24.5541 42.6548,27.5541 41.5,30.5C 39.5019,27.9861 36.8352,26.6528 33.5,26.5 Z"/></g>
<g><path style="opacity:1" fill="#f6f4f4" d="M 28.5,11.5 C 30.099,11.2322 31.4324,11.5655 32.5,12.5C 32.3893,13.1174 32.056,13.6174 31.5,14C 32.756,14.4169 33.4226,15.2502 33.5,16.5C 32.2264,17.1894 32.2264,18.0228 33.5,19C 31.5,20.3333 29.5,21.6667 27.5,23C 29.3911,24.4424 31.3911,25.6091 33.5,26.5C 35.822,28.664 38.4887,30.3307 41.5,31.5C 41.9731,32.9063 42.9731,33.573 44.5,33.5C 44.5,33.8333 44.5,34.1667 44.5,34.5C 41.5279,36.3222 38.5279,38.1555 35.5,40C 34.5,40.6667 33.5,40.6667 32.5,40C 24.1667,34.3333 15.8333,28.6667 7.5,23C 9.71667,21.2765 12.05,19.7765 14.5,18.5C 15.8333,18.5 17.1667,18.5 18.5,18.5C 18.5774,19.7498 19.244,20.5831 20.5,21C 22.5202,22.2166 24.5202,22.3833 26.5,21.5C 26.9396,20.302 27.273,19.1353 27.5,18C 26.3284,17.6466 25.1618,17.8132 24,18.5C 22.9701,18.1639 22.4701,17.4972 22.5,16.5C 23.8471,15.8288 25.0138,15.8288 26,16.5C 26.5,14.6667 27.6667,13.5 29.5,13C 28.944,12.6174 28.6107,12.1174 28.5,11.5 Z"/></g>
<g><path style="opacity:1" fill="#b29587" d="M 15.5,23.5 C 19.774,25.9572 19.4407,26.7906 14.5,26C 15.2524,25.3292 15.5858,24.4959 15.5,23.5 Z"/></g>
<g><path style="opacity:1" fill="#efeceb" d="M 17.5,16.5 C 17.8333,16.5 18.1667,16.5 18.5,16.5C 22.2887,17.5961 22.2887,18.2627 18.5,18.5C 18.1667,17.8333 17.8333,17.1667 17.5,16.5 Z"/></g>
<g><path style="opacity:1" fill="#b7967e" d="M 17.5,16.5 C 17.8333,17.1667 18.1667,17.8333 18.5,18.5C 17.1667,18.5 15.8333,18.5 14.5,18.5C 15.2905,17.5987 16.2905,16.9321 17.5,16.5 Z"/></g>
<g><path style="opacity:1" fill="#caa898" d="M 33.5,10.5 C 35.4586,11.871 37.6252,12.871 40,13.5C 40.4643,12.9056 40.631,12.2389 40.5,11.5C 41.0967,11.7352 41.4301,12.2352 41.5,13C 41.0217,14.3026 40.355,15.4693 39.5,16.5C 37.3469,17.5729 35.3469,17.5729 33.5,16.5C 33.4226,15.2502 32.756,14.4169 31.5,14C 32.056,13.6174 32.3893,13.1174 32.5,12.5C 33.3382,12.1583 33.6716,11.4916 33.5,10.5 Z"/></g>
<g><path style="opacity:1" fill="#c8b5ae" d="M 28.5,11.5 C 28.6107,12.1174 28.944,12.6174 29.5,13C 27.6667,13.5 26.5,14.6667 26,16.5C 25.0138,15.8288 23.8471,15.8288 22.5,16.5C 21.596,15.791 21.2627,14.791 21.5,13.5C 23.3046,12.7629 24.9713,11.7629 26.5,10.5C 27.1835,10.8627 27.8501,11.1961 28.5,11.5 Z"/></g>
<g><path style="opacity:1" fill="#ded6d2" d="M 36.5,6.5 C 38.5869,7.58457 39.9202,9.25124 40.5,11.5C 40.631,12.2389 40.4643,12.9056 40,13.5C 37.6252,12.871 35.4586,11.871 33.5,10.5C 33.7376,8.59565 34.7376,7.26231 36.5,6.5 Z"/></g>
<g><path style="opacity:1" fill="#c98967" d="M 36.5,6.5 C 34.7376,7.26231 33.7376,8.59565 33.5,10.5C 31.6372,10.1541 30.8039,9.15415 31,7.5C 32.3139,6.68723 33.4805,5.68723 34.5,4.5C 35.5223,4.85549 36.189,5.52216 36.5,6.5 Z"/></g>
</svg>
